# xmcd CD database file
#
# Track frame offsets:
#	150
#	12059
#	26004
#	44021
#	62242
#	81104
#	93855
#	106681
#	119804
#	132370
#	144934
#	165525
#	178091
#	196126
#	213347
#	236592
#	256239
#
# Disc length: 3776 seconds
#
# Revision: 0
# Processed by: cddbd v1.5.2PL0 Copyright (c) Steve Scherf et al.
# Submitted via: CDex 1.51
#
DISCID=e50ebe11
DTITLE=Teddy Wilson Trio - The Touch Of Teddy Wilson
DYEAR=1957
DGENRE=Jazz
TTITLE0=Avalon
TTITLE1=Little Things That Mean So Much
TTITLE2='S Wonderful
TTITLE3=Someone To Watch Over Me
TTITLE4=Jeepers Creepers
TTITLE5=If You Are But A Dream
TTITLE6=Bye Bye Blues
TTITLE7=Sunny Morning
TTITLE8=Talking To The Moon
TTITLE9=Dream House
TTITLE10=Sometimes I'm Happy
TTITLE11=That Old Feeling
TTITLE12=Stompin' At The Savoy
TTITLE13=Air Mail Special
TTITLE14=Basin Street Blues
TTITLE15=I Got Rhythm
TTITLE16=Sweet Georgia Brown
EXTD=YEAR: 1957
EXTT0=
EXTT1=
EXTT2=
EXTT3=
EXTT4=
EXTT5=
EXTT6=
EXTT7=
EXTT8=
EXTT9=
EXTT10=
EXTT11=
EXTT12=
EXTT13=
EXTT14=
EXTT15=
EXTT16=
PLAYORDER=
